<?xml version="1.0" encoding="utf-8"?>
<!-- Generator: Adobe Illustrator 16.0.0, SVG Export Plug-In . SVG Version: 6.00 Build 0)  -->
<!DOCTYPE svg PUBLIC "-//W3C//DTD SVG 1.1//EN" "http://www.w3.org/Graphics/SVG/1.1/DTD/svg11.dtd">
<svg version="1.1" id="Layer_1" xmlns="http://www.w3.org/2000/svg" xmlns:xlink="http://www.w3.org/1999/xlink" x="0px" y="0px"
	 width="24px" height="48px" viewBox="0 0 24 48" enable-background="new 0 0 24 48" xml:space="preserve">
<path fill="#78B2F2" d="M5.2,34.785V42.8h3.435v-8.015H5.2z M14.646,29.059c-1.145,3.722-3.721,4.007-4.865,6.298v6.585
	c1.717,0.571,3.148,0.858,4.58,0.858c2.576,0,4.58-1.478,4.58-5.726c0-1.431-0.286-2.292-1.432-2.292h-3.148
	c0.858-1.144,1.432-2.86,1.432-4.006C15.793,30.203,15.793,29.059,14.646,29.059z"/>
<path fill="#BBBBBB" d="M5.2,10.785V18.8h3.435v-8.015H5.2z M14.646,5.059c-1.145,3.722-3.721,4.007-4.865,6.298v6.585
	c1.717,0.571,3.148,0.858,4.58,0.858c2.576,0,4.58-1.478,4.58-5.726c0-1.431-0.286-2.292-1.432-2.292h-3.148
	c0.858-1.144,1.432-2.86,1.432-4.006C15.793,6.203,15.793,5.059,14.646,5.059z"/>
</svg>
